<svg xmlns="http://www.w3.org/2000/svg" width="44" height="44" fill="none" viewBox="0 0 44 44">
    <path stroke="#00A1CE" stroke-linecap="round" stroke-linejoin="round" stroke-miterlimit="10" d="M16.395 31.447L10 33l1.512-6.427 15.6-15.57 4.883 4.917-15.6 15.527zM11.512 26.573l2.766-.302M13.976 29.032l.302-2.76M13.976 29.032l2.765-.302M16.395 31.447l.346-2.717M13.976 29.032l2.765-.302M10 33l1.426-1.423"/>
    <path stroke="#00A1CE" stroke-linecap="round" stroke-linejoin="round" stroke-miterlimit="10" d="M27.112 11.003a3.474 3.474 0 0 1 4.883 0 3.458 3.458 0 0 1 0 4.874M24.65 13.461l4.925 4.874M25.902 12.254l4.883 4.874M14.278 26.271l9.766-9.747M16.741 28.73l9.766-9.79"/>
    <circle cx="22" cy="22" r="21.5" stroke="#00A1CE"/>
</svg>
