<svg xmlns="http://www.w3.org/2000/svg" width="1024" height="768" fill="none" viewBox="0 0 1024 768">
    <mask id="b" width="1024" height="769" x="0" y="-1" maskUnits="userSpaceOnUse">
        <path fill="url(#a)" d="M0-.999h1024v768H0z"/>
    </mask>
    <g mask="url(#b)">
        <mask id="c" width="385" height="385" x="703" y="383" maskUnits="userSpaceOnUse">
            <path fill="#121212" d="M703.978 383.501H1088v383.501H703.978z"/>
        </mask>
        <g fill="#121212" mask="url(#c)">
            <path d="M703.978 369.804L498.252 575.251l205.726 205.447 205.726-205.447-205.726-205.447zm0 29.858L879.094 574.54l-16.373 16.351-158.743-157.818-158.744 158.528-16.373-16.35 175.117-175.589zm0 168.48l-91.118 90.994-19.932-19.905 111.05-110.899 111.049 110.899-19.932 19.905-91.117-90.994zm75.456 105.922l-19.22 19.194-56.948-56.871-56.949 56.871-19.22-19.194 76.169-76.065 76.168 76.065zm-75.456-175.589L577.979 624.302l-17.796-17.772 143.795-143.599L847.773 606.53l-17.797 17.772-125.998-125.827zm-42 210.423l41.288-41.231 41.287 41.231-41.287 41.232-41.288-41.232z"/>
            <path d="M1088 369.804L882.274 575.251 1088 780.698l205.73-205.447L1088 369.804zm0 29.858l175.12 174.878-16.38 16.351L1088 433.073 929.256 591.601l-16.372-16.35L1088 399.662zm0 168.48l-91.117 90.994-19.932-19.905L1088 528.332l111.05 110.899-19.93 19.905-91.12-90.994zm75.46 105.922l-19.22 19.194-56.95-56.871-56.95 56.871-19.22-19.194 76.17-76.065 76.17 76.065zM1088 498.475L962.002 624.302l-17.797-17.772L1088 462.931l143.79 143.599-17.79 17.772-126-125.827zm-42 210.423l41.29-41.231 41.29 41.231-41.29 41.232-41.29-41.232z"/>
            <path d="M895.989 178.054L690.263 383.501l205.726 205.446 205.731-205.446-205.731-205.447zm0 29.857L1071.11 382.79l-16.38 16.35-158.741-157.817-158.744 158.528-16.373-16.35 175.117-175.59zm0 168.481l-91.118 90.993-19.932-19.904 111.05-110.899 111.051 110.899-19.934 19.904-91.117-90.993zm75.457 105.922l-19.221 19.194-56.948-56.871-56.948 56.871-19.221-19.194 76.169-76.065 76.169 76.065zm-75.457-175.589L769.99 432.552l-17.796-17.772 143.795-143.6 143.791 143.6-17.79 17.772-126.001-125.827zm-42 210.423l41.288-41.232 41.288 41.232-41.288 41.231-41.288-41.231z"/>
            <path d="M895.989 561.555L690.263 767.001l205.726 205.447 205.731-205.447-205.731-205.446zm0 29.857L1071.11 766.29l-16.38 16.351-158.741-157.817-158.744 158.528-16.373-16.351 175.117-175.589zm0 168.48l-91.118 90.994-19.932-19.905 111.05-110.898 111.051 110.898-19.934 19.905-91.117-90.994zm75.457 105.923l-19.221 19.194-56.948-56.871-56.948 56.871-19.221-19.194 76.169-76.065 76.169 76.065zm-75.457-175.59L769.99 816.053l-17.796-17.773 143.795-143.599L1039.78 798.28l-17.79 17.773-126.001-125.828zm-42 210.423l41.288-41.231 41.288 41.231-41.288 41.232-41.288-41.232z"/>
        </g>
        <mask id="d" width="385" height="384" x="703" y="0" maskUnits="userSpaceOnUse">
            <path fill="#121212" d="M703.978 0H1088v383.501H703.978z"/>
        </mask>
        <g fill="#121212" mask="url(#d)">
            <path d="M703.978-13.696L498.252 191.75l205.726 205.447L909.704 191.75 703.978-13.696zm0 29.857L879.094 191.04l-16.373 16.35L703.978 49.573 545.234 208.1l-16.373-16.351L703.978 16.161zm0 168.481l-91.118 90.993-19.932-19.905 111.05-110.898L815.027 255.73l-19.932 19.905-91.117-90.993zm75.456 105.922l-19.22 19.194-56.948-56.871-56.949 56.871-19.22-19.194 76.169-76.065 76.168 76.065zm-75.456-175.59L577.979 240.802l-17.796-17.772 143.795-143.6 143.795 143.6-17.797 17.772-125.998-125.828zm-42 210.423l41.288-41.231 41.287 41.231-41.287 41.232-41.288-41.232z"/>
            <path d="M1088-13.696L882.274 191.75 1088 397.197l205.73-205.447L1088-13.696zm0 29.857l175.12 174.879-16.38 16.35L1088 49.573 929.256 208.1l-16.372-16.351L1088 16.161zm0 168.481l-91.117 90.993-19.932-19.905L1088 144.832l111.05 110.898-19.93 19.905-91.12-90.993zm75.46 105.922l-19.22 19.194-56.95-56.871-56.95 56.871-19.22-19.194 76.17-76.065 76.17 76.065zM1088 114.974L962.002 240.802l-17.797-17.772L1088 79.43l143.79 143.6-17.79 17.772-126-125.828zm-42 210.423l41.29-41.231 41.29 41.231-41.29 41.232-41.29-41.232z"/>
            <path d="M895.989-205.447L690.263 0l205.726 205.447L1101.72 0 895.989-205.447zm0 29.858L1071.11-.711l-16.38 16.35-158.741-157.817L737.245 16.351 720.872 0l175.117-175.59zm0 168.48l-91.118 90.994-19.932-19.905 111.05-110.898L1007.04 63.98l-19.934 19.905L895.989-7.11zm75.457 105.923l-19.221 19.194-56.948-56.871-56.948 56.871-19.221-19.194 76.169-76.066 76.169 76.066zm-75.457-175.59L769.99 49.051 752.194 31.28 895.989-112.32l143.791 143.6-17.79 17.771L895.989-76.776zm-42 210.423l41.288-41.231 41.288 41.231-41.288 41.232-41.288-41.232z"/>
            <path d="M895.989 178.054L690.263 383.501l205.726 205.447 205.731-205.447-205.731-205.447zm0 29.857L1071.11 382.79l-16.38 16.35-158.741-157.817-158.744 158.528-16.373-16.35 175.117-175.59zm0 168.481l-91.118 90.994-19.932-19.905 111.05-110.899 111.051 110.899-19.934 19.905-91.117-90.994zm75.457 105.922l-19.221 19.194-56.948-56.871-56.948 56.871-19.221-19.194 76.169-76.065 76.169 76.065zm-75.457-175.589L769.99 432.552l-17.796-17.772 143.795-143.6 143.791 143.6-17.79 17.772-126.001-125.827zm-42 210.423l41.288-41.232 41.288 41.232-41.288 41.231-41.288-41.231z"/>
        </g>
        <mask id="e" width="385" height="385" x="321" y="383" maskUnits="userSpaceOnUse">
            <path fill="#121212" d="M321.022 383.501h384.022v383.501H321.022z"/>
        </mask>
        <g fill="#121212" mask="url(#e)">
            <path d="M321.022 369.804L115.296 575.251l205.726 205.447 205.726-205.447-205.726-205.447zm0 29.858L496.139 574.54l-16.373 16.351-158.744-157.818-158.744 158.528-16.372-16.35 175.116-175.589zm0 168.48l-91.117 90.994-19.932-19.905 111.049-110.899 111.05 110.899-19.932 19.905-91.118-90.994zm75.457 105.922l-19.22 19.194-56.949-56.871-56.948 56.871-19.22-19.194 76.168-76.065 76.169 76.065zm-75.457-175.589L195.024 624.302l-17.797-17.772 143.795-143.599L464.817 606.53l-17.796 17.772-125.999-125.827zm-41.999 210.423l41.287-41.231 41.288 41.231-41.288 41.232-41.287-41.232z"/>
            <path d="M705.044 369.804L499.318 575.251l205.726 205.447 205.727-205.447-205.727-205.447zm0 29.858L880.161 574.54l-16.373 16.351-158.744-157.818-158.743 158.528-16.373-16.35 175.116-175.589zm0 168.48l-91.117 90.994-19.932-19.905 111.049-110.899 111.05 110.899-19.932 19.905-91.118-90.994zm75.457 105.922l-19.22 19.194-56.948-56.871-56.949 56.871-19.22-19.194 76.169-76.065 76.168 76.065zm-75.457-175.589L579.046 624.302 561.25 606.53l143.794-143.599L848.839 606.53l-17.796 17.772-125.999-125.827zm-41.999 210.423l41.288-41.231 41.287 41.231-41.287 41.232-41.288-41.232z"/>
            <path d="M513.033 178.054L307.307 383.501l205.726 205.446L718.76 383.501 513.033 178.054zm0 29.857L688.15 382.79l-16.373 16.35-158.744-157.817L354.29 399.851l-16.373-16.35 175.116-175.59zm0 168.481l-91.117 90.993-19.932-19.904 111.049-110.899 111.05 110.899-19.932 19.904-91.118-90.993zm75.457 105.922l-19.22 19.194-56.949-56.871-56.948 56.871-19.22-19.194 76.168-76.065 76.169 76.065zm-75.457-175.589L387.035 432.552l-17.796-17.772 143.794-143.6 143.795 143.6-17.796 17.772-125.999-125.827zm-41.999 210.423l41.287-41.232 41.288 41.232-41.288 41.231-41.287-41.231z"/>
            <path d="M513.033 561.555L307.307 767.001l205.726 205.447L718.76 767.001 513.033 561.555zm0 29.857L688.15 766.29l-16.373 16.351-158.744-157.817L354.29 783.352l-16.373-16.351 175.116-175.589zm0 168.48l-91.117 90.994-19.932-19.905 111.049-110.898 111.05 110.898-19.932 19.905-91.118-90.994zm75.457 105.923l-19.22 19.194-56.949-56.871-56.948 56.871-19.22-19.194 76.168-76.065 76.169 76.065zm-75.457-175.59L387.035 816.053l-17.796-17.773 143.794-143.599L656.828 798.28l-17.796 17.773-125.999-125.828zm-41.999 210.423l41.287-41.231 41.288 41.231-41.288 41.232-41.287-41.232z"/>
        </g>
        <mask id="f" width="385" height="384" x="321" y="0" maskUnits="userSpaceOnUse">
            <path fill="#121212" d="M321.022 0h384.022v383.501H321.022z"/>
        </mask>
        <g fill="#121212" mask="url(#f)">
            <path d="M321.022-13.696L115.296 191.75l205.726 205.447L526.748 191.75 321.022-13.696zm0 29.857L496.139 191.04l-16.373 16.35L321.022 49.573 162.278 208.1l-16.372-16.351L321.022 16.161zm0 168.481l-91.117 90.993-19.932-19.905 111.049-110.898 111.05 110.898-19.932 19.905-91.118-90.993zm75.457 105.922l-19.22 19.194-56.949-56.871-56.948 56.871-19.22-19.194 76.168-76.065 76.169 76.065zm-75.457-175.59L195.024 240.802l-17.797-17.772 143.795-143.6 143.795 143.6-17.796 17.772-125.999-125.828zm-41.999 210.423l41.287-41.231 41.288 41.231-41.288 41.232-41.287-41.232z"/>
            <path d="M705.044-13.696L499.318 191.75l205.726 205.447L910.771 191.75 705.044-13.696zm0 29.857L880.161 191.04l-16.373 16.35L705.044 49.573 546.301 208.1l-16.373-16.351L705.044 16.161zm0 168.481l-91.117 90.993-19.932-19.905 111.049-110.898 111.05 110.898-19.932 19.905-91.118-90.993zm75.457 105.922l-19.22 19.194-56.948-56.871-56.949 56.871-19.22-19.194 76.169-76.065 76.168 76.065zm-75.457-175.59L579.046 240.802 561.25 223.03l143.794-143.6 143.795 143.6-17.796 17.772-125.999-125.828zm-41.999 210.423l41.288-41.231 41.287 41.231-41.287 41.232-41.288-41.232z"/>
            <path d="M513.033-205.447L307.307 0l205.726 205.447L718.76 0 513.033-205.447zm0 29.858L688.15-.711l-16.373 16.35-158.744-157.817L354.29 16.351 337.917 0l175.116-175.59zm0 168.48l-91.117 90.994-19.932-19.905L513.033-46.918 624.083 63.98l-19.932 19.905L513.033-7.11zM588.49 98.814l-19.22 19.194-56.949-56.871-56.948 56.871-19.22-19.194 76.168-76.066 76.169 76.066zm-75.457-175.59L387.035 49.051 369.239 31.28 513.033-112.32l143.795 143.6-17.796 17.771L513.033-76.776zm-41.999 210.423l41.287-41.231 41.288 41.231-41.288 41.232-41.287-41.232z"/>
            <path d="M513.033 178.054L307.307 383.501l205.726 205.447L718.76 383.501 513.033 178.054zm0 29.857L688.15 382.79l-16.373 16.35-158.744-157.817L354.29 399.851l-16.373-16.35 175.116-175.59zm0 168.481l-91.117 90.994-19.932-19.905 111.049-110.899 111.05 110.899-19.932 19.905-91.118-90.994zm75.457 105.922l-19.22 19.194-56.949-56.871-56.948 56.871-19.22-19.194 76.168-76.065 76.169 76.065zm-75.457-175.589L387.035 432.552l-17.796-17.772 143.794-143.6 143.795 143.6-17.796 17.772-125.999-125.827zm-41.999 210.423l41.287-41.232 41.288 41.232-41.288 41.231-41.287-41.231z"/>
        </g>
        <mask id="g" width="385" height="385" x="-63" y="383" maskUnits="userSpaceOnUse">
            <path fill="#121212" d="M-63 383.501h384.022v383.501H-63z"/>
        </mask>
        <g fill="#121212" mask="url(#g)">
            <path d="M-63 369.804l-205.726 205.447L-63 780.698l205.726-205.447L-63 369.804zm0 29.858L112.116 574.54l-16.372 16.351L-63 433.073l-158.744 158.528-16.372-16.35L-63 399.662zm0 168.48l-91.118 90.994-19.931-19.905L-63 528.332 48.05 639.231l-19.933 19.905L-63 568.142zm75.457 105.922l-19.22 19.194-56.949-56.871-56.948 56.871-19.22-19.194 76.168-76.065 76.169 76.065zM-63 498.475l-125.998 125.827-17.797-17.772L-63 462.931 80.795 606.53l-17.797 17.772L-63 498.475zm-41.999 210.423l41.287-41.231 41.288 41.231-41.288 41.232-41.287-41.232z"/>
            <path d="M321.022 369.804L115.296 575.251l205.726 205.447 205.726-205.447-205.726-205.447zm0 29.858L496.139 574.54l-16.373 16.351-158.744-157.818-158.744 158.528-16.372-16.35 175.116-175.589zm0 168.48l-91.117 90.994-19.932-19.905 111.049-110.899 111.05 110.899-19.932 19.905-91.118-90.994zm75.457 105.922l-19.22 19.194-56.949-56.871-56.948 56.871-19.22-19.194 76.168-76.065 76.169 76.065zm-75.457-175.589L195.024 624.302l-17.797-17.772 143.795-143.599L464.817 606.53l-17.796 17.772-125.999-125.827zm-41.999 210.423l41.287-41.231 41.288 41.231-41.288 41.232-41.287-41.232z"/>
            <path d="M129.011 178.054L-76.715 383.501 129.01 588.947l205.726-205.446-205.726-205.447zm0 29.857L304.128 382.79l-16.373 16.35-158.744-157.817-158.744 158.528-16.372-16.35 175.116-175.59zm0 168.481l-91.117 90.993-19.932-19.904L129.01 336.582l111.05 110.899-19.932 19.904-91.118-90.993zm75.457 105.922l-19.22 19.194-56.949-56.871-56.948 56.871-19.22-19.194 76.168-76.065 76.169 76.065zm-75.457-175.589L3.013 432.552l-17.797-17.772 143.795-143.6 143.795 143.6-17.797 17.772-125.998-125.827zm-42 210.423l41.288-41.232 41.288 41.232-41.288 41.231-41.287-41.231z"/>
            <path d="M129.011 561.555L-76.715 767.001 129.01 972.448l205.726-205.447-205.726-205.446zm0 29.857L304.128 766.29l-16.373 16.351-158.744-157.817-158.744 158.528-16.372-16.351L129.01 591.412zm0 168.48l-91.117 90.994-19.932-19.905L129.01 720.083l111.05 110.898-19.932 19.905-91.118-90.994zm75.457 105.923l-19.22 19.194-56.949-56.871-56.948 56.871-19.22-19.194 76.168-76.065 76.169 76.065zm-75.457-175.59L3.013 816.053l-17.797-17.773 143.795-143.599L272.806 798.28l-17.797 17.773-125.998-125.828zm-42 210.423l41.288-41.231 41.288 41.231-41.288 41.232-41.287-41.232z"/>
        </g>
        <mask id="h" width="385" height="384" x="-63" y="0" maskUnits="userSpaceOnUse">
            <path fill="#121212" d="M-63 0h384.022v383.501H-63z"/>
        </mask>
        <g fill="#121212" mask="url(#h)">
            <path d="M-63-13.696L-268.726 191.75-63 397.197 142.726 191.75-63-13.696zm0 29.857L112.116 191.04l-16.372 16.35L-63 49.573-221.744 208.1l-16.372-16.351L-63 16.161zm0 168.481l-91.118 90.993-19.931-19.905L-63 144.832 48.05 255.73l-19.933 19.905L-63 184.642zm75.457 105.922l-19.22 19.194-56.949-56.871-56.948 56.871-19.22-19.194 76.168-76.065 76.169 76.065zM-63 114.974l-125.998 125.828-17.797-17.772L-63 79.43l143.795 143.6-17.797 17.772L-63 114.974zm-41.999 210.423l41.287-41.231 41.288 41.231-41.288 41.232-41.287-41.232z"/>
            <path d="M321.022-13.696L115.296 191.75l205.726 205.447L526.748 191.75 321.022-13.696zm0 29.857L496.139 191.04l-16.373 16.35L321.022 49.573 162.278 208.1l-16.372-16.351L321.022 16.161zm0 168.481l-91.117 90.993-19.932-19.905 111.049-110.898 111.05 110.898-19.932 19.905-91.118-90.993zm75.457 105.922l-19.22 19.194-56.949-56.871-56.948 56.871-19.22-19.194 76.168-76.065 76.169 76.065zm-75.457-175.59L195.024 240.802l-17.797-17.772 143.795-143.6 143.795 143.6-17.796 17.772-125.999-125.828zm-41.999 210.423l41.287-41.231 41.288 41.231-41.288 41.232-41.287-41.232z"/>
            <path d="M129.011-205.447L-76.715 0 129.01 205.447 334.737 0 129.011-205.447zm0 29.858L304.128-.711l-16.373 16.35-158.744-157.817L-29.733 16.351-46.105 0 129.01-175.59zm0 168.48L37.894 83.885 17.962 63.98 129.01-46.918 240.061 63.98l-19.932 19.905L129.011-7.11zm75.457 105.923l-19.22 19.194-56.949-56.871-56.948 56.871-19.22-19.194 76.168-76.066 76.169 76.066zm-75.457-175.59L3.013 49.051-14.784 31.28 129.011-112.32l143.795 143.6-17.797 17.771L129.011-76.776zm-42 210.423L128.3 92.416l41.288 41.231-41.288 41.232-41.287-41.232z"/>
            <path d="M129.011 178.054L-76.715 383.501 129.01 588.948l205.726-205.447-205.726-205.447zm0 29.857L304.128 382.79l-16.373 16.35-158.744-157.817-158.744 158.528-16.372-16.35 175.116-175.59zm0 168.481l-91.117 90.994-19.932-19.905L129.01 336.582l111.05 110.899-19.932 19.905-91.118-90.994zm75.457 105.922l-19.22 19.194-56.949-56.871-56.948 56.871-19.22-19.194 76.168-76.065 76.169 76.065zm-75.457-175.589L3.013 432.552l-17.797-17.772 143.795-143.6 143.795 143.6-17.797 17.772-125.998-125.827zm-42 210.423l41.288-41.232 41.288 41.232-41.288 41.231-41.287-41.231z"/>
        </g>
    </g>
    <defs>
        <linearGradient id="a" x1="512" x2="512" y1="-.999" y2="767.001" gradientUnits="userSpaceOnUse">
            <stop stop-color="#C4C4C4" stop-opacity=".05"/>
            <stop offset="1" stop-color="#C4C4C4" stop-opacity="0"/>
        </linearGradient>
    </defs>
</svg>
