<svg xmlns="http://www.w3.org/2000/svg" width="82" height="70" fill="none" viewBox="0 0 82 70">
    <rect width="51" height="81" x="81.5" y=".5" fill="#000" stroke="#fff" rx="2.649" transform="rotate(90 81.5 .5)"/>
    <path fill="#fff" d="M50.582 30.916c-6.7-1.8-20.6-.7-21.6 5.1-.9 5 6.4 2.9 14.6 8.3 2.4 1.6 5 5.7 3.3 9.8-3.6 9.1-23 7-20.8 13.7 1.4 4.1 14.5 1 23.8-2.4 14.2-5.2 17.4-12.9 14.5-22.9-2.5-8.5-10.8-10.8-13.8-11.6z"/>
    <path fill="#00A1CE" d="M27.582 16.416c4-1.1 14.7-3.2 15.1 1.6.3 3.5-7.5 5.2-11 6.9-3.6 1.8-12.7 7.1-7.6 15.6 5.3 8.7 15.8 3.3 17.7 9.8 3 10.1-16.7 12.8-26.8 3.2-7.3-7-12.4-30.3 12.6-37.1z"/>
</svg>
