<svg xmlns="http://www.w3.org/2000/svg" width="108" height="79" fill="none" viewBox="0 0 108 79">
    <rect width="51" height="81" x="81.5" y=".5" stroke="#fff" rx="2.649" transform="rotate(90 81.5 .5)"/>
    <path fill="#47AE7B" d="M93.17 25.468l-5.813 5.717 1.661 1.634 5.814-5.718-1.661-1.633z"/>
    <path fill="#47AE7B" d="M89.017 25.627l-1.661 1.634 5.813 5.718 1.66-1.633-5.812-5.719zM70.164 18.764L64.35 24.48l1.661 1.634 5.814-5.718-1.661-1.633z"/>
    <path fill="#47AE7B" d="M66.01 18.924l-1.66 1.634 5.812 5.718 1.661-1.633-5.813-5.719zM79.123 18.842L73.31 24.56l1.66 1.633 5.814-5.717-1.66-1.634z"/>
    <path fill="#47AE7B" d="M74.97 19.003l-1.662 1.633 5.813 5.719 1.661-1.634-5.812-5.718zM85.931 12.909l-5.813 5.717 1.66 1.634 5.814-5.718-1.66-1.633z"/>
    <path fill="#47AE7B" d="M81.944 12.906l-1.662 1.633 5.813 5.719 1.662-1.634-5.813-5.718zM91.276 32.905l-5.813 5.718 1.66 1.633 5.814-5.718-1.66-1.633z"/>
    <path fill="#47AE7B" d="M87.123 33.064l-1.661 1.634 5.812 5.718 1.662-1.633-5.813-5.719zM63.207 22.566l-5.814 5.718 1.661 1.634 5.814-5.718-1.661-1.634z"/>
    <path fill="#47AE7B" d="M59.22 22.564l-1.66 1.633 5.812 5.719 1.661-1.634-5.813-5.718zM56.063 66.923L50.25 72.64l1.66 1.634 5.814-5.718-1.66-1.633z"/>
    <path fill="#47AE7B" d="M51.913 67.082l-1.661 1.634 5.812 5.718 1.661-1.633-5.812-5.719zM77.467 21.568l-5.814 5.717 1.661 1.634 5.814-5.718-1.661-1.633z"/>
    <path fill="#47AE7B" d="M73.313 21.728l-1.66 1.634 5.812 5.718 1.661-1.633-5.813-5.719zM65.797 21.828l-5.813 5.717 1.66 1.634 5.814-5.718-1.66-1.633z"/>
    <path fill="#47AE7B" d="M61.478 21.826l-1.66 1.633 5.812 5.718 1.661-1.633-5.813-5.718zM82.667 21.724l-5.814 5.718 1.661 1.634 5.814-5.718-1.661-1.634z"/>
    <path fill="#47AE7B" d="M78.347 21.721l-1.661 1.634 5.812 5.718 1.662-1.633-5.813-5.719zM73.328 21.86l-5.814 5.717 1.661 1.634 5.814-5.718-1.662-1.634z"/>
    <path fill="#47AE7B" d="M69.174 21.693l-1.66 1.634 5.812 5.718 1.661-1.633-5.813-5.719zM59.66 15.02l-5.814 5.718 1.661 1.634 5.814-5.718-1.661-1.633z"/>
    <path fill="#47AE7B" d="M55.34 15.019l-1.66 1.633 5.812 5.719 1.662-1.634-5.813-5.718zM68.619 15.099l-5.814 5.718 1.661 1.633 5.814-5.717-1.661-1.634z"/>
    <path fill="#47AE7B" d="M64.3 15.097l-1.662 1.633 5.813 5.719 1.661-1.634-5.812-5.718zM75.427 9.165l-5.813 5.718 1.66 1.634 5.814-5.718-1.66-1.634z"/>
    <path fill="#47AE7B" d="M71.274 9l-1.662 1.633 5.813 5.719 1.661-1.633L71.274 9zM106.339 37.306l-5.814 5.718 1.661 1.634L108 38.94l-1.661-1.634z"/>
    <path fill="#47AE7B" d="M102.185 37.465l-1.661 1.633 5.813 5.719 1.661-1.633-5.813-5.719zM103.374 28.352l-5.813 5.718 1.66 1.634 5.814-5.718-1.661-1.634z"/>
    <path fill="#47AE7B" d="M99.386 28.348l-1.66 1.634 5.812 5.718 1.661-1.633-5.813-5.719zM94.201 28.324l-5.813 5.717 1.66 1.634 5.814-5.717-1.661-1.634z"/>
    <path fill="#47AE7B" d="M90.213 28.32l-1.66 1.634 5.812 5.718 1.661-1.633-5.813-5.719z"/>
    <path fill="#47AE7B" d="M95.834 33.563l-5.813 5.718 1.66 1.634 5.814-5.718-1.66-1.634z"/>
    <path fill="#47AE7B" d="M91.515 33.56l-1.661 1.633 5.813 5.718 1.66-1.633-5.812-5.719zM92.704 24.446l-5.814 5.718 1.661 1.633 5.814-5.717-1.661-1.634z"/>
    <path fill="#47AE7B" d="M88.716 24.442l-1.66 1.634 5.812 5.718 1.661-1.633-5.813-5.719zM91.141 31.884L85.328 37.6l1.66 1.634 5.814-5.718-1.66-1.634z"/>
    <path fill="#47AE7B" d="M86.822 31.88l-1.661 1.633 5.812 5.718 1.662-1.633-5.813-5.718zM52.536 18.66l-5.813 5.718 1.66 1.633 5.814-5.717-1.66-1.634z"/>
    <path fill="#47AE7B" d="M48.55 18.658l-1.661 1.634 5.813 5.718 1.66-1.633-5.812-5.719zM66.962 17.825l-5.813 5.718 1.66 1.633 5.814-5.717-1.66-1.634z"/>
    <path fill="#47AE7B" d="M62.643 17.823l-1.66 1.633 5.812 5.718 1.661-1.633-5.813-5.718zM78.46 39.361l-5.813 5.718 1.66 1.633 5.814-5.717-1.66-1.634z"/>
    <path fill="#47AE7B" d="M74.141 39.358l-1.66 1.633 5.812 5.719 1.661-1.634-5.813-5.718zM73.054 45.33l-5.813 5.717 1.66 1.634 5.814-5.718-1.66-1.633z"/>
    <path fill="#47AE7B" d="M68.736 45.326l-1.66 1.633 5.812 5.719 1.661-1.633-5.813-5.719zM81.103 51.91l-5.814 5.719 1.661 1.633 5.813-5.717-1.66-1.634z"/>
    <path fill="#47AE7B" d="M76.95 51.743l-1.66 1.634 5.812 5.718 1.661-1.633-5.813-5.719zM69.26 56.941l-5.814 5.718 1.66 1.634 5.814-5.718-1.66-1.634z"/>
    <path fill="#47AE7B" d="M65.108 57.101l-1.661 1.633 5.813 5.719 1.66-1.634-5.812-5.718zM62.962 45.158l-5.813 5.718 1.66 1.633 5.814-5.717-1.66-1.634z"/>
    <path fill="#47AE7B" d="M58.645 45.155l-1.662 1.633 5.813 5.719 1.661-1.634-5.812-5.718zM57.033 53.98l-5.814 5.718 1.661 1.634 5.814-5.718-1.661-1.634z"/>
    <path fill="#47AE7B" d="M53.048 53.977l-1.661 1.633L57.2 61.33l1.66-1.634-5.812-5.718zM62.596 38.219l-5.814 5.717 1.661 1.634 5.814-5.718-1.661-1.633z"/>
    <path fill="#47AE7B" d="M58.444 38.38l-1.661 1.633 5.813 5.718 1.66-1.633-5.812-5.719zM70.82 30.134l-5.814 5.717 1.661 1.634 5.814-5.718-1.661-1.633z"/>
    <path fill="#47AE7B" d="M66.667 30.294l-1.661 1.633 5.812 5.719 1.662-1.633-5.813-5.719zM90.653 39.311L84.84 45.03l1.66 1.633 5.814-5.717-1.66-1.634z"/>
    <path fill="#47AE7B" d="M86.334 39.307l-1.66 1.633 5.812 5.719 1.661-1.633-5.813-5.719zM87.523 30.194l-5.814 5.717 1.661 1.634 5.814-5.718-1.661-1.634z"/>
    <path fill="#47AE7B" d="M83.37 30.353l-1.662 1.634 5.813 5.718 1.661-1.633-5.812-5.719zM57.115 34.771L51.3 40.49l1.661 1.634 5.814-5.718-1.661-1.634z"/>
    <path fill="#47AE7B" d="M52.963 34.605l-1.661 1.634 5.813 5.718 1.66-1.633-5.812-5.719zM49.236 45.887l-5.813 5.717 1.66 1.634 5.814-5.718-1.661-1.633z"/>
    <path fill="#47AE7B" d="M45.085 46.047l-1.661 1.634 5.813 5.718 1.66-1.633-5.812-5.719zM59.212 62.99l-5.814 5.717 1.661 1.634 5.814-5.718-1.661-1.634z"/>
    <path fill="#47AE7B" d="M55.061 62.822l-1.66 1.634 5.812 5.718 1.661-1.633-5.813-5.719zM78.66 60.645l-5.814 5.717 1.66 1.634 5.814-5.718-1.66-1.633z"/>
    <path fill="#47AE7B" d="M74.508 60.804l-1.661 1.633 5.812 5.719 1.661-1.634-5.812-5.718zM78.35 30.165l-5.814 5.718 1.661 1.633 5.814-5.717-1.661-1.634z"/>
    <path fill="#47AE7B" d="M74.197 30.325l-1.662 1.634 5.813 5.718 1.661-1.633-5.812-5.719zM70.413 36.92l-5.814 5.718 1.661 1.634 5.814-5.718-1.661-1.633z"/>
    <path fill="#47AE7B" d="M66.427 36.918l-1.662 1.633 5.813 5.719 1.661-1.634-5.812-5.718zM64.516 23.49l-5.814 5.717 1.661 1.634 5.814-5.718-1.661-1.633z"/>
    <path fill="#47AE7B" d="M60.363 23.65l-1.661 1.634 5.813 5.718 1.66-1.633-5.812-5.718zM73.64 23.405l-5.813 5.717 1.661 1.634 5.814-5.718-1.661-1.633z"/>
    <path fill="#47AE7B" d="M69.488 23.565L67.827 25.2l5.813 5.718 1.66-1.633-5.812-5.719zM80.45 17.471l-5.814 5.718 1.661 1.634 5.814-5.718-1.662-1.634z"/>
    <path fill="#47AE7B" d="M76.296 17.632l-1.661 1.633 5.813 5.719 1.66-1.634-5.812-5.718zM84.316 45.105l-5.814 5.718 1.661 1.633 5.814-5.717-1.661-1.634z"/>
    <path fill="#47AE7B" d="M79.997 45.1l-1.66 1.634 5.812 5.719 1.661-1.634-5.813-5.718zM85.794 37.794l-5.813 5.718 1.66 1.634 5.814-5.718-1.661-1.634z"/>
    <path fill="#47AE7B" d="M81.641 37.627l-1.66 1.634 5.812 5.718 1.661-1.633-5.813-5.719zM65.107 48.82l-5.813 5.718 1.66 1.634 5.814-5.718-1.66-1.634z"/>
    <path fill="#47AE7B" d="M60.79 48.817l-1.662 1.633 5.813 5.719 1.661-1.634-5.812-5.718zM57.725 27.129l-5.814 5.718 1.661 1.633 5.814-5.717-1.661-1.634z"/>
    <path fill="#47AE7B" d="M53.573 27.29l-1.661 1.633 5.812 5.719 1.662-1.634-5.813-5.718zM69.829 48.184l-5.814 5.718 1.661 1.633 5.814-5.717-1.661-1.634z"/>
    <path fill="#47AE7B" d="M65.677 48.017l-1.661 1.633 5.813 5.719 1.66-1.634-5.812-5.718zM64.257 53.989l-5.813 5.717 1.66 1.634 5.814-5.718-1.66-1.633z"/>
    <path fill="#47AE7B" d="M60.106 54.148l-1.661 1.634 5.812 5.718 1.662-1.633-5.813-5.718zM72.471 60.407l-5.813 5.718 1.66 1.633 5.814-5.717-1.66-1.634z"/>
    <path fill="#47AE7B" d="M68.32 60.566L66.659 62.2l5.812 5.719 1.662-1.634-5.813-5.718zM60.628 65.764l-5.813 5.718 1.66 1.633 5.814-5.717-1.66-1.634z"/>
    <path fill="#47AE7B" d="M56.478 65.597l-1.662 1.633 5.813 5.719 1.662-1.634-5.813-5.718zM54.331 53.98l-5.814 5.718 1.661 1.634 5.814-5.718-1.661-1.633z"/>
    <path fill="#47AE7B" d="M50.18 53.814l-1.66 1.634 5.812 5.718 1.661-1.633-5.813-5.719zM48.568 62.64l-5.814 5.717 1.661 1.634 5.814-5.718-1.661-1.633z"/>
    <path fill="#47AE7B" d="M44.418 62.8l-1.662 1.633 5.813 5.719 1.661-1.634-5.812-5.718zM53.965 47.041L48.15 52.76l1.661 1.634 5.814-5.718-1.661-1.634z"/>
    <path fill="#47AE7B" d="M49.814 47.202l-1.661 1.633 5.812 5.719 1.661-1.634-5.812-5.718zM62.188 38.956l-5.813 5.718 1.661 1.634 5.813-5.718-1.66-1.634z"/>
    <path fill="#47AE7B" d="M58.037 39.117l-1.662 1.633 5.813 5.719 1.661-1.634-5.812-5.718zM82.023 48.134l-5.814 5.718 1.661 1.633 5.814-5.718-1.661-1.633z"/>
    <path fill="#47AE7B" d="M77.704 48.13l-1.661 1.633 5.813 5.718 1.66-1.633-5.812-5.718zM79.058 38.853l-5.814 5.718 1.661 1.633 5.814-5.718-1.661-1.633z"/>
    <path fill="#47AE7B" d="M74.906 39.013l-1.662 1.633 5.813 5.719 1.661-1.634-5.812-5.718zM48.484 43.267l-5.814 5.718 1.661 1.634 5.814-5.718-1.661-1.634z"/>
    <path fill="#47AE7B" d="M44.333 43.428l-1.661 1.634 5.812 5.718 1.662-1.633-5.813-5.719zM40.605 54.71l-5.813 5.717 1.66 1.633 5.814-5.717-1.66-1.634z"/>
    <path fill="#47AE7B" d="M36.621 54.706L34.96 56.34l5.813 5.718 1.66-1.633-5.812-5.718zM50.747 71.649l-5.813 5.717L46.594 79l5.814-5.718-1.66-1.633z"/>
    <path fill="#47AE7B" d="M46.431 71.645l-1.66 1.633 5.812 5.719 1.661-1.634-5.813-5.718zM70.028 69.468l-5.813 5.717 1.66 1.634L71.69 71.1l-1.66-1.633z"/>
    <path fill="#47AE7B" d="M65.878 69.3l-1.661 1.633 5.812 5.719 1.662-1.634-5.813-5.718zM69.719 38.988l-5.814 5.718 1.661 1.633 5.814-5.718-1.661-1.633z"/>
    <path fill="#47AE7B" d="M65.733 38.985l-1.661 1.633 5.813 5.718 1.66-1.633-5.812-5.718zM61.948 45.58l-5.814 5.718 1.661 1.633 5.814-5.717-1.661-1.634z"/>
    <path fill="#47AE7B" d="M57.797 45.74l-1.662 1.634 5.813 5.718 1.661-1.633-5.813-5.719zM56.05 32.149l-5.813 5.718 1.661 1.633 5.814-5.717-1.661-1.634z"/>
    <path fill="#47AE7B" d="M51.9 32.31l-1.662 1.633 5.813 5.719 1.66-1.634L51.9 32.31zM65.01 32.227l-5.813 5.718 1.66 1.634 5.814-5.718-1.66-1.634z"/>
    <path fill="#47AE7B" d="M60.858 32.388l-1.661 1.633 5.813 5.719 1.66-1.634-5.812-5.718zM71.819 26.294l-5.814 5.718 1.661 1.633 5.814-5.717-1.661-1.634z"/>
    <path fill="#47AE7B" d="M67.832 26.291l-1.661 1.633 5.813 5.719 1.66-1.633-5.812-5.719zM75.685 53.928l-5.814 5.717 1.661 1.634 5.814-5.718-1.661-1.633z"/>
    <path fill="#47AE7B" d="M71.367 53.924l-1.661 1.633 5.812 5.718 1.662-1.633-5.813-5.718zM77.163 46.29l-5.813 5.718 1.66 1.634 5.814-5.718-1.66-1.633z"/>
    <path fill="#47AE7B" d="M73.011 46.45l-1.661 1.633 5.813 5.719 1.66-1.634-5.812-5.718zM56.31 57.48l-5.813 5.717 1.66 1.634 5.814-5.718-1.66-1.633z"/>
    <path fill="#47AE7B" d="M52.325 57.476l-1.66 1.634 5.812 5.718 1.661-1.633-5.813-5.719zM49.094 35.952l-5.814 5.717 1.661 1.634 5.814-5.718-1.661-1.633z"/>
    <path fill="#47AE7B" d="M45.109 35.95l-1.661 1.633L49.26 43.3l1.662-1.633-5.813-5.719zM67.79 35.455l-5.814 5.718 1.66 1.633 5.814-5.717-1.66-1.634z"/>
    <path fill="#47AE7B" d="M63.637 35.615l-1.661 1.633 5.813 5.719 1.66-1.633-5.812-5.719zM62.384 41.423l-5.814 5.718 1.661 1.633 5.814-5.717-1.661-1.634z"/>
    <path fill="#47AE7B" d="M58.232 41.584l-1.661 1.633 5.812 5.718 1.662-1.633-5.813-5.718zM52.291 41.252l-5.813 5.717 1.66 1.634 5.814-5.718-1.66-1.633z"/>
    <path fill="#47AE7B" d="M48.14 41.413l-1.661 1.633 5.813 5.718 1.66-1.633-5.812-5.718z"/>
    <path fill="#47AE7B" d="M52.092 34.476l-5.814 5.717 1.661 1.634 5.814-5.718-1.661-1.633z"/>
    <path fill="#47AE7B" d="M47.94 34.637L46.28 36.27l5.813 5.718 1.66-1.633-5.812-5.718zM60.315 26.39l-5.813 5.718 1.66 1.634 5.814-5.718-1.66-1.634z"/>
    <path fill="#47AE7B" d="M56.163 26.552l-1.661 1.633 5.813 5.719 1.66-1.634-5.812-5.718zM79.983 35.405l-5.814 5.717 1.661 1.634 5.814-5.718-1.661-1.633z"/>
    <path fill="#47AE7B" d="M75.83 35.565l-1.66 1.633 5.812 5.718 1.661-1.633-5.813-5.718zM77.019 26.45l-5.814 5.718 1.661 1.634 5.814-5.718-1.661-1.633z"/>
    <path fill="#47AE7B" d="M72.866 26.61l-1.662 1.634 5.813 5.719 1.661-1.634-5.812-5.718zM46.445 30.865l-5.814 5.718 1.661 1.633 5.814-5.717-1.661-1.634z"/>
    <path fill="#47AE7B" d="M42.293 31.026l-1.661 1.634 5.813 5.718 1.661-1.633-5.813-5.718zM38.732 42.144l-5.814 5.717 1.661 1.634 5.814-5.718-1.661-1.633z"/>
    <path fill="#47AE7B" d="M34.581 42.305l-1.661 1.633 5.813 5.719 1.66-1.633-5.812-5.719zM67.845 26.422l-5.813 5.718 1.66 1.633 5.814-5.717-1.66-1.634z"/>
    <path fill="#47AE7B" d="M63.693 26.583l-1.661 1.633 5.812 5.719 1.662-1.634-5.813-5.718zM59.908 33.178l-5.813 5.717 1.661 1.634 5.813-5.718-1.66-1.633z"/>
    <path fill="#47AE7B" d="M55.923 33.175L54.26 34.81l5.813 5.718 1.662-1.633-5.813-5.719zM54.011 19.747l-5.813 5.717 1.66 1.634 5.814-5.718-1.66-1.633z"/>
    <path fill="#47AE7B" d="M49.86 19.908l-1.662 1.634 5.813 5.718 1.66-1.633-5.812-5.719zM63.136 19.662l-5.813 5.717 1.661 1.634 5.813-5.718-1.66-1.633z"/>
    <path fill="#47AE7B" d="M58.984 19.823l-1.661 1.633 5.812 5.719 1.662-1.634-5.813-5.718zM69.945 13.728l-5.813 5.718 1.66 1.633 5.814-5.717-1.661-1.634z"/>
    <path fill="#47AE7B" d="M65.792 13.89l-1.662 1.633 5.813 5.718 1.662-1.633-5.813-5.719zM73.645 41.199l-5.813 5.718 1.66 1.633 5.814-5.717-1.66-1.634z"/>
    <path fill="#47AE7B" d="M69.493 41.359l-1.661 1.633 5.812 5.719 1.662-1.634-5.813-5.718zM75.124 33.888l-5.814 5.718 1.661 1.633 5.814-5.717-1.661-1.634z"/>
    <path fill="#47AE7B" d="M71.137 33.885l-1.66 1.633 5.812 5.719 1.661-1.634-5.813-5.718zM88.663 41.92l-5.813 5.717 1.66 1.634 5.814-5.718-1.66-1.634z"/>
    <path fill="#47AE7B" d="M84.51 42.078l-1.66 1.634 5.812 5.718 1.661-1.633-5.813-5.718zM91.305 54.469l-5.813 5.718 1.66 1.633 5.814-5.718-1.66-1.633z"/>
    <path fill="#47AE7B" d="M87.32 54.464l-1.662 1.633 5.813 5.719 1.661-1.633-5.813-5.719zM100.691 42.032l-5.814 5.718 1.661 1.634 5.814-5.718-1.661-1.634z"/>
    <path fill="#47AE7B" d="M96.704 42.028l-1.661 1.633 5.812 5.719 1.661-1.634-5.812-5.718zM97.892 32.915l-5.813 5.718 1.66 1.633 5.814-5.717-1.66-1.634z"/>
    <path fill="#47AE7B" d="M93.739 33.074l-1.661 1.634 5.812 5.718 1.662-1.633-5.813-5.719zM89.029 63.366l-5.813 5.718 1.66 1.633L90.69 65l-1.661-1.634z"/>
    <path fill="#47AE7B" d="M84.711 63.361l-1.661 1.634 5.813 5.718 1.661-1.633-5.813-5.719zM88.719 32.886l-5.813 5.718 1.66 1.634 5.814-5.718-1.661-1.634z"/>
    <path fill="#47AE7B" d="M84.566 33.046l-1.661 1.634 5.813 5.718 1.66-1.633-5.812-5.719zM94.519 47.663l-5.814 5.718 1.661 1.633 5.814-5.717-1.661-1.634z"/>
    <path fill="#47AE7B" d="M90.366 47.822l-1.66 1.633 5.812 5.719 1.661-1.634-5.813-5.718zM95.998 40.353l-5.814 5.717 1.661 1.634 5.814-5.718-1.662-1.633z"/>
    <path fill="#47AE7B" d="M91.844 40.512l-1.66 1.633 5.812 5.718 1.661-1.633-5.813-5.718zM92.226 50.692l-5.814 5.717 1.661 1.634 5.814-5.718-1.661-1.633z"/>
    <path fill="#47AE7B" d="M88.073 50.85l-1.66 1.634 5.812 5.718 1.661-1.633-5.813-5.718zM89.261 41.737l-5.813 5.718 1.661 1.634 5.814-5.718-1.662-1.634z"/>
    <path fill="#47AE7B" d="M85.275 41.733l-1.661 1.634 5.812 5.718 1.662-1.633-5.813-5.718zM85.888 56.486l-5.814 5.717 1.662 1.634 5.813-5.718-1.661-1.633z"/>
    <path fill="#47AE7B" d="M81.736 56.645l-1.661 1.633 5.813 5.718 1.66-1.633-5.812-5.718zM87.533 49.012l-5.814 5.717 1.662 1.634 5.813-5.718-1.661-1.633z"/>
    <path fill="#47AE7B" d="M83.38 49.17l-1.66 1.634 5.812 5.719 1.661-1.634-5.813-5.718zM90.186 38.29l-5.813 5.717 1.66 1.634 5.814-5.718-1.66-1.634z"/>
    <path fill="#47AE7B" d="M86.2 38.285l-1.662 1.634 5.813 5.718 1.661-1.633-5.812-5.719zM87.388 29.172l-5.814 5.717 1.661 1.634 5.814-5.718-1.661-1.633z"/>
    <path fill="#47AE7B" d="M83.069 29.168l-1.662 1.634 5.813 5.718 1.661-1.633-5.813-5.719zM85.493 36.61l-5.813 5.717 1.66 1.634 5.814-5.718-1.661-1.634z"/>
    <path fill="#47AE7B" d="M81.34 36.77l-1.66 1.633 5.812 5.718 1.661-1.633-5.813-5.719zM54.437 44.914l-5.814 5.718 1.661 1.633 5.814-5.717-1.661-1.634z"/>
    <path fill="#47AE7B" d="M50.286 45.075l-1.662 1.633 5.813 5.719 1.661-1.634-5.812-5.718zM47.22 23.386l-5.813 5.718 1.661 1.633 5.814-5.717-1.661-1.634z"/>
    <path fill="#47AE7B" d="M42.903 23.384l-1.662 1.634 5.813 5.718 1.661-1.633-5.813-5.719zM59.158 44.278l-5.813 5.717 1.66 1.634 5.814-5.718-1.66-1.633z"/>
    <path fill="#47AE7B" d="M55.173 44.275l-1.66 1.633 5.812 5.718 1.661-1.633-5.813-5.718zM43.46 43.298l-5.813 5.718 1.66 1.633 5.814-5.717-1.66-1.634z"/>
    <path fill="#47AE7B" d="M39.144 43.296l-1.662 1.633 5.813 5.719 1.661-1.634-5.812-5.718zM51.684 35.213l-5.813 5.718 1.66 1.633 5.815-5.717-1.661-1.634z"/>
    <path fill="#47AE7B" d="M47.367 35.21l-1.661 1.634 5.813 5.719 1.66-1.634-5.812-5.718zM71.352 44.227l-5.814 5.718 1.662 1.633 5.813-5.717-1.661-1.634z"/>
    <path fill="#47AE7B" d="M67.2 44.387l-1.66 1.633 5.812 5.719 1.661-1.633-5.813-5.719zM68.387 35.273l-5.813 5.718 1.66 1.633 5.814-5.717-1.66-1.634z"/>
    <path fill="#47AE7B" d="M64.235 35.107l-1.661 1.633 5.813 5.719 1.661-1.634-5.813-5.718zM37.813 39.688L32 45.406l1.661 1.633 5.813-5.718-1.66-1.633z"/>
    <path fill="#47AE7B" d="M33.829 39.686l-1.661 1.633 5.813 5.719 1.66-1.634-5.812-5.718zM59.214 35.245l-5.813 5.717 1.66 1.634 5.814-5.718-1.66-1.633z"/>
    <path fill="#47AE7B" d="M55.063 35.079L53.4 36.712l5.813 5.719 1.661-1.634-5.812-5.718zM51.444 41.837l-5.814 5.718 1.661 1.633 5.814-5.717-1.661-1.634z"/>
    <path fill="#47AE7B" d="M47.127 41.835l-1.662 1.633 5.813 5.719 1.661-1.634-5.812-5.718zM45.38 28.57l-5.813 5.717 1.66 1.633 5.814-5.717-1.66-1.634z"/>
    <path fill="#47AE7B" d="M41.229 28.404l-1.661 1.634 5.812 5.718 1.661-1.633-5.812-5.719zM54.506 28.484l-5.813 5.718 1.66 1.634 5.814-5.718-1.661-1.634z"/>
    <path fill="#47AE7B" d="M50.188 28.482l-1.661 1.634 5.812 5.718 1.662-1.633-5.813-5.719zM61.315 22.55L55.5 28.269l1.66 1.634 5.814-5.718-1.66-1.633z"/>
    <path fill="#47AE7B" d="M57.328 22.549l-1.661 1.633 5.813 5.719 1.66-1.634-5.812-5.718zM66.659 42.547l-5.814 5.718 1.661 1.634 5.814-5.718-1.661-1.633z"/>
    <path fill="#47AE7B" d="M62.507 42.708l-1.661 1.633 5.813 5.719 1.66-1.634-5.812-5.718zM38.423 32.045l-5.813 5.718 1.66 1.633 5.814-5.717-1.66-1.634z"/>
    <path fill="#47AE7B" d="M34.272 32.207l-1.661 1.633 5.813 5.719 1.66-1.634-5.812-5.718zM84.677 50.692l-5.814 5.718 1.661 1.634 5.814-5.718-1.661-1.634z"/>
    <path fill="#47AE7B" d="M80.524 50.851l-1.66 1.634 5.812 5.718 1.661-1.633-5.813-5.719zM72.834 56.05l-5.814 5.717 1.661 1.634 5.814-5.718-1.661-1.633z"/>
    <path fill="#47AE7B" d="M68.682 55.882l-1.661 1.634 5.813 5.718 1.66-1.633-5.812-5.719zM60.607 53.088l-5.813 5.718 1.66 1.634 5.814-5.718-1.66-1.634z"/>
    <path fill="#47AE7B" d="M56.622 53.085l-1.661 1.633 5.812 5.719 1.662-1.633-5.813-5.719zM62.953 61.934l-5.814 5.718 1.66 1.633 5.815-5.717-1.662-1.634z"/>
    <path fill="#47AE7B" d="M58.636 61.93l-1.662 1.634 5.813 5.718 1.661-1.633-5.812-5.719zM82.234 59.753L76.42 65.47l1.661 1.633 5.814-5.718-1.661-1.633z"/>
    <path fill="#47AE7B" d="M78.082 59.585l-1.661 1.633 5.813 5.719 1.66-1.633-5.812-5.719zM67.832 53.097l-5.814 5.718 1.661 1.633 5.814-5.717-1.661-1.634z"/>
    <path fill="#47AE7B" d="M63.846 53.093l-1.66 1.634 5.812 5.718 1.661-1.633-5.813-5.719zM76.046 59.515l-5.814 5.718 1.661 1.633 5.814-5.717-1.661-1.634z"/>
    <path fill="#47AE7B" d="M71.894 59.674l-1.66 1.634 5.812 5.718 1.661-1.633-5.813-5.719zM64.368 64.709l-5.813 5.718 1.66 1.633 5.814-5.717-1.66-1.634z"/>
    <path fill="#47AE7B" d="M60.052 64.705l-1.662 1.633 5.813 5.719 1.661-1.634-5.812-5.718zM57.906 52.762l-5.814 5.718 1.661 1.633 5.814-5.717-1.661-1.634z"/>
    <path fill="#47AE7B" d="M53.755 52.922l-1.662 1.634 5.813 5.718 1.661-1.633-5.812-5.719zM52.142 61.748l-5.813 5.717 1.66 1.634 5.814-5.718-1.66-1.633z"/>
    <path fill="#47AE7B" d="M47.826 61.744l-1.661 1.634 5.813 5.718 1.66-1.633-5.812-5.719zM44.346 53.654l-5.814 5.717 1.661 1.634 5.814-5.718-1.661-1.633z"/>
    <path fill="#47AE7B" d="M40.195 53.815l-1.661 1.633 5.813 5.718 1.66-1.633-5.812-5.718zM54.155 70.594l-5.813 5.717 1.66 1.634 5.814-5.718-1.66-1.633z"/>
    <path fill="#47AE7B" d="M50.005 70.753l-1.66 1.633 5.812 5.719 1.661-1.634-5.813-5.718zM73.77 68.412l-5.814 5.718 1.66 1.634 5.814-5.718-1.66-1.634z"/>
    <path fill="#47AE7B" d="M69.452 68.408l-1.661 1.633 5.813 5.719 1.66-1.634-5.812-5.718zM79.093 52.872l-5.814 5.718 1.661 1.634 5.814-5.718-1.661-1.634z"/>
    <path fill="#47AE7B" d="M75.107 52.868l-1.66 1.634 5.812 5.718 1.661-1.633-5.813-5.719zM60.05 56.425l-5.813 5.717 1.66 1.634 5.814-5.718-1.66-1.633z"/>
    <path fill="#47AE7B" d="M55.9 56.584l-1.661 1.634 5.812 5.718 1.661-1.633-5.812-5.719zM95.046 53.414l-5.813 5.717 1.66 1.634 5.814-5.718-1.66-1.633z"/>
    <path fill="#47AE7B" d="M90.894 53.573l-1.662 1.633 5.813 5.718 1.661-1.633-5.812-5.718zM92.437 62.311l-5.813 5.718 1.66 1.633 5.814-5.717-1.66-1.634z"/>
    <path fill="#47AE7B" d="M88.285 62.47l-1.661 1.633 5.812 5.718 1.661-1.633-5.812-5.719zM95.8 49.8l-5.813 5.718 1.66 1.633 5.814-5.718-1.66-1.633z"/>
    <path fill="#47AE7B" d="M91.647 49.959l-1.66 1.633 5.812 5.718 1.661-1.633-5.813-5.718zM89.462 55.594l-5.813 5.718 1.66 1.633 5.814-5.718-1.66-1.633z"/>
    <path fill="#47AE7B" d="M85.476 55.59l-1.661 1.633 5.813 5.718 1.66-1.633-5.812-5.719z"/>
</svg>
